<svg width="18" height="18" viewBox="0 0 18 18" fill="none" xmlns="http://www.w3.org/2000/svg">
<path d="M15.0667 2.84664C14.2725 2.04651 13.3272 1.41228 12.2858 0.980794C11.2442 0.549314 10.1273 0.329224 9 0.333308C7.49298 0.334781 6.01269 0.732191 4.70752 1.48574C3.40235 2.23928 2.31809 3.32252 1.56329 4.62695C0.808486 5.93139 0.409668 7.41128 0.406743 8.9183C0.403828 10.4254 0.796927 11.9068 1.54667 13.2142L0.333336 17.6666L4.88334 16.475C6.13973 17.1739 7.55148 17.5465 8.98917 17.5583C11.2747 17.5584 13.4677 16.6557 15.0907 15.0467C16.7139 13.4379 17.6358 11.2529 17.6558 8.96748C17.6483 7.82706 17.4156 6.69935 16.9713 5.64902C16.527 4.59867 15.8797 3.64636 15.0667 2.84664ZM9 16.0742C7.71918 16.075 6.46176 15.7307 5.36 15.0775L5.1 14.915L2.4025 15.63L3.1175 12.9975L2.94417 12.7266C2.02252 11.2389 1.67855 9.46473 1.97742 7.74028C2.27629 6.01589 3.19725 4.46098 4.56581 3.37014C5.93439 2.27929 7.65548 1.72827 9.40311 1.82147C11.1507 1.91466 12.8036 2.6456 14.0483 3.87581C15.409 5.20635 16.1879 7.02128 16.215 8.92415C16.1979 10.8264 15.4301 12.6449 14.0789 13.984C12.7278 15.323 10.9023 16.0743 9 16.0742ZM12.9108 10.7225C12.6942 10.6142 11.6433 10.0942 11.4483 10.0292C11.2533 9.96415 11.1017 9.92082 10.9608 10.1375C10.7489 10.4279 10.521 10.7063 10.2783 10.9717C10.1592 11.1233 10.0292 11.1342 9.8125 10.9717C8.57718 10.4835 7.54801 9.58433 6.89834 8.42582C6.67084 8.04665 7.115 8.06832 7.52667 7.25582C7.55711 7.19721 7.57293 7.13221 7.57293 7.06623C7.57293 7.00026 7.55711 6.93526 7.52667 6.87665C7.52667 6.76831 7.03917 5.70664 6.86584 5.28414C6.6925 4.86164 6.51917 4.92664 6.37834 4.91581H5.95584C5.84636 4.91749 5.73852 4.94252 5.6395 4.98922C5.54049 5.03593 5.45258 5.10323 5.38167 5.18664C5.13859 5.423 4.949 5.70872 4.82566 6.02453C4.70232 6.34035 4.64811 6.67893 4.66667 7.01748C4.73459 7.82793 5.0398 8.60034 5.54417 9.23832C6.46739 10.6204 7.73261 11.7401 9.21667 12.4883C9.99504 12.9427 10.8996 13.1327 11.795 13.03C12.0931 12.9708 12.3756 12.8496 12.6238 12.6741C12.8721 12.4987 13.0806 12.273 13.2358 12.0117C13.3797 11.6927 13.425 11.3381 13.3658 10.9933C13.2683 10.885 13.1275 10.8308 12.9108 10.7225Z" fill="#808080"/>
</svg>
